# xmcd CD database file
# Copyright (C) 1995-1998 Ti Kan
#
# Track frame offsets:
#	150
#	19995
#	47468
#	68079
#	88089
#	101465
#	120779
#
# Disc length: 1834 seconds
#
# Revision: 1
# Processed by: cddbd v1.4PL0 Copyright (c) Steve Scherf et al.
# Submitted via: CDex 1.30Release
#
DISCID=4b072807
DTITLE=Stacks Edward - You Found Trouble
DYEAR=2003
DGENRE=Blues
TTITLE0=You Found Trouble
TTITLE1=Stand to Crawl
TTITLE2=Good Morning Little School Girl
TTITLE3=Cherry Red
TTITLE4=The Run
TTITLE5=When I Was Down
TTITLE6=Telephone Drinking
EXTD=YEAR: 2003 ID3G:   0
EXTT0=
EXTT1=
EXTT2=
EXTT3=
EXTT4=
EXTT5=
EXTT6=
PLAYORDER=
